# Blender 4.2.2 LTS
# www.blender.org
o InverseCornerWedgeBase
v 2.000000 -2.000000 -2.000000
v 2.000000 2.000000 2.000000
v 2.000000 -2.000000 2.000000
v -2.000000 2.000000 -2.000000
v -2.000000 -2.000000 -2.000000
v -2.000000 2.000000 2.000000
v -2.000000 -2.000000 2.000000
vn 1.0000 -0.0000 -0.0000
vn -0.0000 -0.0000 1.0000
vn -1.0000 -0.0000 -0.0000
vn -0.0000 -1.0000 -0.0000
vn -0.0000 -0.0000 -1.0000
vn -0.0000 1.0000 -0.0000
s 0
f 3//1 1//1 2//1
f 3//2 2//2 6//2 7//2
f 7//3 6//3 4//3 5//3
f 5//4 1//4 3//4 7//4
f 5//5 4//5 1//5
f 4//6 6//6 2//6
